<?xml version="1.0" standalone="no"?>
<!DOCTYPE svg PUBLIC "-//W3C//DTD SVG 20010904//EN"
 "http://www.w3.org/TR/2001/REC-SVG-20010904/DTD/svg10.dtd">
<svg version="1.0" xmlns="http://www.w3.org/2000/svg"
 width="256.000000pt" height="256.000000pt" viewBox="0 0 256.000000 256.000000"
 preserveAspectRatio="xMidYMid meet">
<metadata>
Created by potrace 1.14, written by Peter Selinger 2001-2017
</metadata>
<g transform="translate(0.000000,256.000000) scale(0.100000,-0.100000)"
fill="#000000" stroke="none">
<path d="M1780 2284 c-199 -70 -225 -274 -57 -451 67 -71 165 -132 221 -138
126 -13 346 195 361 341 7 75 -13 133 -64 184 -71 71 -168 88 -251 45 -27 -14
-33 -14 -60 0 -32 16 -124 28 -150 19z"/>
<path d="M935 2138 c-25 -14 -35 -28 -35 -51 0 -28 -51 -97 -72 -97 -21 0 -47
-52 -81 -167 -13 -46 -27 -75 -38 -78 -61 -20 -209 -157 -274 -256 l-44 -66
-88 -28 c-169 -52 -262 -110 -288 -179 -36 -95 2 -178 125 -277 60 -48 110
-69 176 -76 49 -5 57 -9 71 -37 53 -105 167 -209 265 -242 56 -18 160 -25 211
-14 29 6 38 1 104 -61 174 -164 355 -233 608 -234 211 0 337 31 465 116 97 64
146 141 153 239 3 40 9 57 23 65 109 60 189 135 180 168 -6 26 39 100 64 105
27 6 37 22 59 90 29 93 39 170 37 287 -1 114 -12 143 -68 188 -74 60 -190 40
-240 -41 -19 -31 -23 -52 -24 -127 -2 -120 -11 -179 -36 -237 -27 -63 -40 -73
-63 -48 -12 13 -19 40 -21 79 -6 92 -38 167 -100 228 -63 63 -126 93 -212 100
-62 6 -167 -12 -178 -29 -13 -20 -34 -5 -44 30 -24 92 -138 222 -234 271 -42
20 -44 23 -48 75 -2 30 -16 78 -31 108 -31 64 -122 160 -177 188 -43 22 -114
26 -145 8z"/>
</g>
</svg>
